<?xml version="1.0" encoding="iso-8859-1"?>
<!-- Generator: Adobe Illustrator 19.0.0, SVG Export Plug-In . SVG Version: 6.00 Build 0)  -->
<svg version="1.1" id="Layer_1" xmlns="http://www.w3.org/2000/svg" xmlns:xlink="http://www.w3.org/1999/xlink" x="0px" y="0px"
	 viewBox="0 0 512 512" style="enable-background:new 0 0 512 512;" xml:space="preserve">
<g>
	<path style="fill:#EF5959;" d="M439.925,193.058h41.664c12.596,0,22.808,10.212,22.808,22.808v35.493
		c0,12.596-10.212,22.808-22.808,22.808H30.412c-12.596,0-22.808-10.212-22.808-22.808v-35.493
		c0-12.596,10.212-22.808,22.808-22.808h41.653"/>
	<path style="fill:#EF5959;" d="M27.861,274.167l4.603,26.36l25.894,148.176c4.055,23.197,24.201,40.129,47.753,40.129h299.768
		c23.552,0,43.697-16.931,47.753-40.129l25.904-148.176l4.603-26.36L27.861,274.167L27.861,274.167z M168.301,429.156
		c0,12.876-10.443,23.319-23.319,23.319c-12.886,0-23.319-10.443-23.319-23.319v-95.303c0-12.886,10.433-23.319,23.319-23.319
		c6.438,0,12.268,2.606,16.485,6.823c4.218,4.218,6.833,10.057,6.833,16.496V429.156z M279.319,429.156
		c0,12.876-10.443,23.319-23.319,23.319c-12.886,0-23.319-10.443-23.319-23.319v-95.303c0-12.886,10.433-23.319,23.319-23.319
		c6.438,0,12.268,2.606,16.485,6.823c4.218,4.218,6.833,10.057,6.833,16.496V429.156z M390.337,429.156
		c0,12.876-10.443,23.319-23.319,23.319c-12.876,0-23.319-10.443-23.319-23.319v-95.303c0-12.886,10.443-23.319,23.319-23.319
		c6.438,0,12.268,2.606,16.485,6.823c4.218,4.218,6.833,10.057,6.833,16.496V429.156z"/>
</g>
<g>
	<path style="fill:#DD4B4B;" d="M82.695,448.703L56.801,300.527l-4.603-26.36H27.865l4.603,26.36l25.894,148.176
		c4.055,23.197,24.201,40.129,47.753,40.129h24.333C106.895,488.832,86.75,471.9,82.695,448.703z"/>
	<polygon style="fill:#DD4B4B;" points="484.139,274.167 479.536,300.527 32.464,300.527 27.861,274.167 	"/>
</g>
<g>
	<path style="fill:#E6E6E6;" d="M222.635,28.272L222.635,28.272c-13.312-9.116-31.483-5.801-40.719,7.429L65.526,202.422
		c-9.354,13.399-5.987,31.855,7.495,41.088l0,0c13.312,9.116,31.483,5.801,40.719-7.429L230.131,69.36
		C239.485,55.961,236.118,37.505,222.635,28.272z"/>
	<path style="fill:#E6E6E6;" d="M289.358,28.272L289.358,28.272c13.312-9.116,31.483-5.801,40.719,7.429l116.39,166.721
		c9.354,13.399,5.987,31.855-7.495,41.088l0,0c-13.312,9.116-31.483,5.801-40.719-7.429L281.862,69.36
		C272.508,55.961,275.875,37.505,289.358,28.272z"/>
</g>
<path d="M481.588,185.454h-37.693L336.312,31.348c-11.574-16.581-34.566-20.774-51.251-9.35l0,0
	c-8.208,5.621-13.71,14.106-15.496,23.892c-1.785,9.786,0.368,19.667,6.062,27.823l78.008,111.742H158.358l78.008-111.742
	c5.694-8.156,7.847-18.038,6.062-27.823c-1.785-9.786-7.288-18.271-15.496-23.892c-16.685-11.424-39.676-7.231-51.251,9.35
	l-57.079,81.763c-2.404,3.443-1.561,8.184,1.882,10.588c3.443,2.404,8.184,1.561,10.587-1.882l57.079-81.763
	c6.819-9.767,20.362-12.236,30.189-5.507c4.834,3.31,8.075,8.309,9.127,14.073c1.051,5.764-0.217,11.584-3.57,16.388
	l-116.389,166.72c-6.819,9.767-20.36,12.237-30.188,5.507c-4.835-3.31-8.076-8.309-9.128-14.072
	c-1.051-5.764,0.217-11.584,3.57-16.389l6.575-9.419c0.017-0.024,0.034-0.049,0.051-0.073l37.941-54.349
	c2.404-3.443,1.561-8.184-1.882-10.588c-3.443-2.404-8.184-1.561-10.587,1.882l-35.76,51.224H30.412
	C13.643,185.454,0,199.097,0,215.866v35.493c0,13.566,8.93,25.083,21.22,28.988l29.651,169.666
	c4.702,26.9,27.935,46.424,55.241,46.424H405.88c27.308,0,50.541-19.524,55.241-46.424l29.651-169.663
	C503.066,276.447,512,264.929,512,251.359v-35.493C512,199.097,498.358,185.454,481.588,185.454z M284.527,48.619
	c1.051-5.765,4.293-10.762,9.127-14.073l0,0c9.828-6.729,23.372-4.259,30.189,5.507L433.584,197.25
	c0.038,0.056,0.077,0.111,0.116,0.165l6.533,9.359c3.354,4.805,4.622,10.624,3.57,16.389c-1.051,5.765-4.293,10.762-9.128,14.072
	c-9.827,6.73-23.37,4.259-30.188-5.507L288.097,65.007C284.744,60.203,283.476,54.383,284.527,48.619z M496.792,251.359
	c0,8.384-6.821,15.204-15.204,15.204h-113.05c-4.2,0-7.604,3.405-7.604,7.604s3.404,7.604,7.604,7.604h106.548l-28.945,165.623
	c-3.427,19.605-20.358,33.835-40.261,33.835H106.113c-19.902,0-36.834-14.23-40.261-33.835L36.907,281.771h306.285
	c4.2,0,7.604-3.405,7.604-7.604s-3.404-7.604-7.604-7.604H30.412c-8.384,0-15.204-6.82-15.204-15.204v-35.493
	c0-8.384,6.821-15.204,15.204-15.204h27.233c-4.443,7.614-6.017,16.459-4.416,25.231c1.786,9.786,7.289,18.271,15.497,23.892
	c6.353,4.35,13.619,6.436,20.821,6.436c11.715,0,23.261-5.517,30.429-15.786l27.766-39.773h216.511l27.766,39.773
	c7.168,10.267,18.714,15.786,30.429,15.786c7.202,0,14.469-2.086,20.821-6.436c8.208-5.62,13.71-14.105,15.497-23.891
	c1.6-8.772,0.026-17.617-4.416-25.231h27.24c8.384,0,15.204,6.82,15.204,15.204L496.792,251.359L496.792,251.359z"/>
<path d="M336.093,333.848v95.303c0,17.051,13.873,30.923,30.923,30.923c17.05,0,30.923-13.872,30.923-30.923v-95.303
	c0-17.051-13.873-30.923-30.923-30.923C349.966,302.925,336.093,316.798,336.093,333.848z M351.301,333.848
	c0-8.665,7.049-15.715,15.715-15.715c8.665,0,15.715,7.049,15.715,15.715v95.303c0,8.665-7.049,15.715-15.715,15.715
	c-8.665,0-15.715-7.049-15.715-15.715V333.848z"/>
<path d="M144.977,302.925c-17.05,0-30.923,13.872-30.923,30.923v95.303c0,17.051,13.873,30.923,30.923,30.923
	s30.923-13.872,30.923-30.923v-95.303C175.9,316.798,162.028,302.925,144.977,302.925z M160.692,429.151
	c0,8.665-7.049,15.715-15.715,15.715s-15.715-7.049-15.715-15.715v-95.303c0-8.665,7.049-15.715,15.715-15.715
	s15.715,7.049,15.715,15.715V429.151z"/>
<path d="M255.996,302.925c-17.05,0-30.922,13.872-30.922,30.923v95.303c0,17.051,13.873,30.923,30.923,30.923
	s30.923-13.872,30.923-30.923v-95.303C286.92,316.798,273.047,302.925,255.996,302.925z M271.712,429.151
	c0,8.665-7.049,15.715-15.715,15.715h-0.001c-8.664,0-15.714-7.049-15.714-15.715v-95.303c0-8.665,7.049-15.715,15.715-15.715
	s15.715,7.049,15.715,15.715V429.151z"/>
<g>
</g>
<g>
</g>
<g>
</g>
<g>
</g>
<g>
</g>
<g>
</g>
<g>
</g>
<g>
</g>
<g>
</g>
<g>
</g>
<g>
</g>
<g>
</g>
<g>
</g>
<g>
</g>
<g>
</g>
</svg>
