<?xml version="1.0" encoding="iso-8859-1"?>
<!-- Generator: Adobe Illustrator 19.0.0, SVG Export Plug-In . SVG Version: 6.00 Build 0)  -->
<svg version="1.1" id="Layer_1" xmlns="http://www.w3.org/2000/svg" xmlns:xlink="http://www.w3.org/1999/xlink" x="0px" y="0px"
	 viewBox="0 0 512.004 512.004" style="enable-background:new 0 0 512.004 512.004;" xml:space="preserve">
<path style="fill:#72CDED;" d="M172.689,276.998c27.66,5.385,48.541,29.757,48.541,58.995v115.286H20.26V335.993
	c0-29.238,20.882-53.61,48.541-58.995"/>
<g>
	<path style="fill:#5FBAD3;" d="M94.363,276.998H68.801c-27.66,5.385-48.541,29.757-48.541,58.995v115.286h25.562V335.993
		C45.821,306.755,66.703,282.383,94.363,276.998z"/>
	<polygon style="fill:#5FBAD3;" points="167.823,281.404 159.978,333.546 137.898,317.866 120.744,305.683 103.592,317.866 
		81.512,333.546 73.667,281.404 	"/>
</g>
<g>
	<path style="fill:#E0B394;" d="M27.824,204.229c-10.93-0.485-19.63-9.502-19.63-20.547c0-11.353,9.202-20.564,20.564-20.564
		c1.022,0,2.028,0.07,3.015,0.22"/>
	<path style="fill:#E0B394;" d="M213.652,204.229c10.93-0.485,19.638-9.502,19.638-20.547c0-11.353-9.212-20.564-20.573-20.564
		c-1.023,0-2.036,0.079-3.015,0.22"/>
</g>
<path style="fill:#F7CBA4;" d="M90.992,293.118l-36.183-26.289c-19.121-13.892-29.464-36.864-27.191-60.389l6.275-64.943
	c4.322-44.729,41.911-78.86,86.847-78.86l0,0c44.938,0,82.525,34.13,86.847,78.86l6.275,64.943
	c2.273,23.525-8.07,46.496-27.191,60.389l-36.183,26.289C132.753,306.006,108.732,306.006,90.992,293.118z"/>
<path style="fill:#E0B394;" d="M50.135,219.239c-0.608,10.286,2.742,20.405,9.37,28.295l37.816,46.471
	c1.975,2.354,4.213,4.328,6.637,5.906c-4.548-1.587-8.92-3.861-12.967-6.796L54.808,266.83
	c-19.119-13.891-29.458-36.863-27.184-60.388l6.267-64.946c4.285-44.295,41.184-78.195,85.547-78.839
	c-27.325,0.661-58.266,26.417-59.88,53.848L50.135,219.239z"/>
<path style="fill:#CE7C19;" d="M208.644,152.439c-16.377-26.223-33.248-10.515-69.388-10.515c-24.188,0-45.218-11.846-56.484-19.683
	c-8.453,8.453-17.462,14.403-25.447,18.546c-13.407,6.955-23.959,8.824-24.213,8.867l0.784-8.154
	c4.231-43.826,40.397-77.47,84.126-78.82c0.476-0.009,0.952-0.017,1.419-0.027c0.432-0.017,0.864-0.017,1.305-0.017
	c22.468,0,43.103,8.532,58.652,22.654c15.549,14.13,26.029,33.847,28.189,56.21L208.644,152.439z"/>
<path style="fill:#AF6719;" d="M119.44,62.654c-27.325,0.661-58.273,26.417-59.887,53.848l-2.23,24.284
	c-13.407,6.955-23.959,8.824-24.213,8.867l0.784-8.154c4.231-43.826,40.397-77.47,84.126-78.82
	C118.497,62.673,118.973,62.663,119.44,62.654z"/>
<path style="fill:#F7CBA4;" d="M420.942,302.723c27.66,5.385,48.541,29.757,48.541,58.995v89.559H268.512v-89.559
	c0-29.238,20.882-53.61,48.541-58.995"/>
<g>
	<path style="fill:#E0B394;" d="M342.616,302.723h-25.562c-27.66,5.385-48.541,29.757-48.541,58.995v89.559h25.562v-89.559
		C294.075,332.481,314.955,308.11,342.616,302.723z"/>
	<path style="fill:#E0B394;" d="M276.076,229.954c-10.93-0.485-19.63-9.502-19.63-20.547c0-11.353,9.202-20.564,20.564-20.564
		c1.023,0,2.028,0.07,3.015,0.22"/>
	<path style="fill:#E0B394;" d="M461.904,229.954c10.93-0.485,19.638-9.502,19.638-20.547c0-11.353-9.212-20.564-20.573-20.564
		c-1.023,0-2.036,0.079-3.015,0.22"/>
</g>
<path style="fill:#F7CBA4;" d="M339.245,318.844l-36.183-26.289c-19.121-13.892-29.464-36.864-27.191-60.389l6.275-64.943
	c4.322-44.729,41.911-78.86,86.847-78.86l0,0c44.938,0,82.525,34.13,86.847,78.86l6.275,64.943
	c2.273,23.525-8.07,46.496-27.191,60.389l-36.183,26.289C381.005,331.732,356.985,331.732,339.245,318.844z"/>
<path style="fill:#E0B394;" d="M298.388,244.965c-0.608,10.286,2.742,20.405,9.37,28.295l37.816,46.471
	c1.975,2.354,4.213,4.328,6.637,5.906c-4.548-1.587-8.92-3.861-12.967-6.796l-36.184-26.284
	c-19.119-13.891-29.458-36.862-27.184-60.388l6.267-64.946c4.283-44.293,41.181-78.194,85.545-78.837
	c-27.325,0.661-58.266,26.417-59.88,53.848L298.388,244.965z"/>
<rect x="308.615" y="372.418" style="fill:#FD5D65;" width="120.754" height="78.861"/>
<path style="fill:#666666;" d="M503.467,243.793c-2.855,17.206-17.294,30.48-34.676,31.953c-5.756,0.485-11.282-0.299-16.316-2.115
	c7.546-12.208,11.071-26.716,9.643-41.455l-6.275-64.937c-1.049-10.842-4.046-21.058-8.638-30.322
	c-6.012,16.192-21.605,27.731-39.886,27.731c-16.871,0-31.45-9.828-38.325-24.072c-6.875,14.245-21.454,24.072-38.325,24.072
	c-7.298,0-14.173-1.842-20.176-5.086v-0.009c-9.034-4.866-16.095-12.914-19.709-22.635c-4.592,9.265-7.589,19.48-8.638,30.322
	l-6.276,64.937c-1.428,14.738,2.098,29.246,9.643,41.455c-5.033,1.816-10.56,2.6-16.315,2.115
	c-17.383-1.472-31.821-14.747-34.676-31.953c-2.081-12.508,2.124-24.116,9.74-32.385c10.286-11.159,16.29-25.589,16.29-40.758
	v-1.525c0-50.586,34.738-93.081,81.649-105.008c8.559-2.177,17.532-3.34,26.769-3.34h0.053
	c59.833,0.017,108.418,48.524,108.418,108.348v1.525c0,15.169,6.002,29.599,16.29,40.758
	C501.342,219.677,505.546,231.285,503.467,243.793z"/>
<path style="fill:#4D4D4D;" d="M310.491,159.552c-9.034-4.866-16.095-12.914-19.709-22.635c-4.592,9.265-7.589,19.48-8.638,30.322
	l-6.276,64.937c-1.428,14.738,2.098,29.246,9.643,41.455c-5.033,1.816-10.56,2.6-16.316,2.115
	c-17.383-1.472-31.821-14.747-34.676-31.953c-2.081-12.508,2.124-24.116,9.74-32.385c10.286-11.159,16.29-25.589,16.29-40.758
	v-1.525c0-50.586,34.738-93.081,81.649-105.008C341.28,64.875,286.418,110.641,310.491,159.552z"/>
<path d="M81.41,186.287c-4.475,0-8.102,3.628-8.102,8.102v10.574c0,4.475,3.628,8.102,8.102,8.102c4.475,0,8.102-3.628,8.102-8.102
	v-10.574C89.512,189.915,85.885,186.287,81.41,186.287z"/>
<path d="M150.504,174.557c2.507-2.506,5.84-3.888,9.385-3.888s6.878,1.381,9.385,3.888c1.582,1.582,3.656,2.373,5.729,2.373
	c2.073,0,4.147-0.791,5.729-2.373c3.164-3.164,3.164-8.294,0-11.457c-11.493-11.494-30.194-11.494-41.687,0
	c-3.164,3.164-3.164,8.294,0,11.457C142.211,177.721,147.341,177.721,150.504,174.557z"/>
<path d="M102.255,174.557c3.164-3.164,3.163-8.294,0-11.457c-11.493-11.493-30.194-11.493-41.687,0
	c-3.164,3.164-3.164,8.294,0,11.457c3.164,3.164,8.294,3.164,11.457,0c5.176-5.175,13.595-5.176,18.771,0
	c1.582,1.582,3.656,2.372,5.729,2.372C98.598,176.929,100.673,176.138,102.255,174.557z"/>
<path d="M159.889,186.287c-4.475,0-8.102,3.628-8.102,8.102v10.574c0,4.475,3.628,8.102,8.102,8.102s8.102-3.628,8.102-8.102
	v-10.574C167.992,189.915,164.364,186.287,159.889,186.287z"/>
<path d="M206.738,296.101c-3.732,2.467-4.758,7.495-2.29,11.227c5.619,8.499,8.589,18.403,8.589,28.64v107.182h-23.906V336.665
	c0-4.475-3.628-8.102-8.102-8.102c-4.475,0-8.102,3.628-8.102,8.102v106.487h-44.171V321.351l26.44,18.777
	c1.392,0.99,3.037,1.496,4.692,1.496c1.073,0,2.151-0.213,3.17-0.646c2.591-1.102,4.424-3.468,4.842-6.252l7.341-48.789
	c5.286,1.493,10.28,3.8,14.885,6.915c1.391,0.941,2.97,1.391,4.531,1.391c2.599,0,5.153-1.249,6.719-3.565
	c2.506-3.706,1.533-8.744-2.174-11.25c-2.914-1.97-5.948-3.695-9.084-5.177l1.228-0.892c19.969-14.507,31.481-38.151,30.806-62.641
	c11.211-3.92,19.15-14.567,19.15-27.061c0-14.328-10.571-26.235-24.325-28.337l-1.413-14.627
	c-2.285-23.642-13.227-45.456-30.811-61.423s-40.35-24.76-64.101-24.76s-46.517,8.794-64.101,24.76
	c-17.585,15.967-28.527,37.781-30.811,61.423l-1.413,14.626C10.571,157.418,0,169.327,0,183.657c0,12.497,7.939,23.145,19.15,27.063
	c-0.672,24.489,10.838,48.132,30.806,62.639l1.241,0.902c-23.396,11.04-39.132,34.867-39.132,61.708v115.285
	c0,4.475,3.628,8.102,8.102,8.102h54.751c4.475,0,8.102-3.628,8.102-8.102s-3.628-8.102-8.102-8.102h-6.548V336.665
	c0-4.475-3.628-8.102-8.102-8.102s-8.102,3.628-8.102,8.102v106.487H28.27V335.969c0-23.388,15.658-43.781,37.796-50.039
	l7.342,48.797c0.419,2.784,2.251,5.15,4.842,6.252c2.589,1.1,5.566,0.779,7.861-0.851l26.44-18.777v121.801h-5.224
	c-4.475,0-8.102,3.628-8.102,8.102s3.628,8.102,8.102,8.102h113.812c4.475,0,8.102-3.628,8.102-8.102V335.969
	c0-13.425-3.899-26.419-11.276-37.577C215.496,294.659,210.469,293.633,206.738,296.101z M225.096,183.657
	c0,3.839-1.728,7.271-4.458,9.559l-1.977-20.457C222.494,174.888,225.096,178.973,225.096,183.657z M20.661,193.219
	c-2.729-2.288-4.457-5.721-4.457-9.563c0-4.686,2.602-8.772,6.435-10.9L20.661,193.219z M153.834,319.287l-15.623-11.096
	c5.955-1.874,11.684-4.718,16.951-8.544l1.828-1.328L153.834,319.287z M120.65,70.715c37.356,0,68.795,25.568,77.044,60.99
	c-9.766-4.067-20.294-2.378-31.192-0.617c-7.864,1.27-16.777,2.71-27.338,2.71c-22.315,0-42.068-11.423-51.856-18.231
	c-4.89-3.403-7.787-5.986-7.928-6.111c-3.312-3.005-8.434-2.758-11.44,0.553c-3.009,3.312-2.763,8.436,0.549,11.446
	c0.054,0.05,0.574,0.519,1.507,1.299c-10.068,8.187-20.309,13.018-27.675,15.741C47.914,99.594,80.947,70.715,120.65,70.715z
	 M87.472,319.287l-3.153-20.962l1.82,1.323l0,0c5.267,3.827,10.998,6.672,16.953,8.546L87.472,319.287z M95.662,286.539
	L59.48,260.251c-16.723-12.151-25.877-32.48-23.888-53.055l4.934-51.051c9.003-2.551,26.467-8.996,43.042-23.651
	c12.443,7.755,32.649,17.507,55.598,17.507c11.86,0,21.876-1.618,29.922-2.918c16.875-2.726,23.608-3.806,31.596,8.088l5.027,52.024
	c1.989,20.574-7.165,40.904-23.888,53.054l-36.183,26.289C130.692,297.398,110.608,297.398,95.662,286.539z"/>
<path d="M143.52,246.617c-3.164-3.164-8.294-3.164-11.457,0c-6.293,6.293-16.532,6.292-22.822,0c-3.164-3.164-8.294-3.164-11.457,0
	c-3.164,3.164-3.164,8.294,0,11.457c6.305,6.305,14.587,9.458,22.868,9.458c8.283,0,16.564-3.152,22.87-9.458
	C146.684,254.91,146.684,249.78,143.52,246.617z"/>
<path d="M114.039,229.816h13.222c4.475,0,8.102-3.628,8.102-8.102v-26.443c0-4.475-3.628-8.102-8.102-8.102
	s-8.102,3.628-8.102,8.102v18.341h-5.119c-4.475,0-8.102,3.628-8.102,8.102S109.564,229.816,114.039,229.816z"/>
<path d="M329.663,212.013c-4.475,0-8.102,3.628-8.102,8.102v10.574c0,4.475,3.628,8.102,8.102,8.102s8.102-3.628,8.102-8.102
	v-10.574C337.766,215.641,334.138,212.013,329.663,212.013z"/>
<path d="M408.143,180.19c-7.874,0-15.276,3.067-20.844,8.635c-3.164,3.164-3.164,8.294,0,11.457c3.164,3.164,8.294,3.164,11.457,0
	c2.507-2.507,5.84-3.888,9.385-3.888c3.546,0,6.878,1.381,9.385,3.888c1.582,1.583,3.656,2.373,5.729,2.373s4.147-0.791,5.729-2.372
	c3.164-3.164,3.164-8.294,0-11.459C423.419,183.257,416.017,180.19,408.143,180.19z"/>
<path d="M350.506,200.283c3.164-3.164,3.164-8.294,0-11.459c-5.567-5.568-12.97-8.635-20.843-8.635
	c-7.873,0-15.276,3.067-20.843,8.635c-3.164,3.164-3.164,8.294,0,11.459c3.164,3.164,8.293,3.163,11.459,0
	c2.506-2.507,5.84-3.888,9.385-3.888c3.545,0,6.878,1.381,9.385,3.888c1.583,1.583,3.656,2.373,5.73,2.373
	C346.851,202.656,348.925,201.865,350.506,200.283z"/>
<path d="M408.143,212.013c-4.475,0-8.102,3.628-8.102,8.102v10.574c0,4.475,3.628,8.102,8.102,8.102
	c4.475,0,8.102-3.628,8.102-8.102v-10.574C416.245,215.641,412.617,212.013,408.143,212.013z"/>
<path d="M380.315,272.343c-3.049,3.049-7.101,4.726-11.411,4.726c-4.31,0-8.364-1.679-11.411-4.726
	c-3.163-3.164-8.293-3.164-11.457,0c-3.164,3.164-3.164,8.293,0,11.457c6.108,6.109,14.231,9.473,22.87,9.473
	c8.639,0,16.761-3.364,22.869-9.473c3.164-3.164,3.164-8.294,0-11.457C388.609,269.177,383.478,269.178,380.315,272.343z"/>
<path d="M362.292,255.543h13.222c4.475,0,8.102-3.628,8.102-8.102v-26.444c0-4.475-3.628-8.102-8.102-8.102
	s-8.102,3.628-8.102,8.102v18.342h-5.119c-4.475,0-8.102,3.628-8.102,8.102C354.19,251.916,357.818,255.543,362.292,255.543z"/>
<path d="M499.589,205.889c-9.121-9.895-14.144-22.42-14.144-35.267v-1.525c0-28.501-10.423-55.933-29.348-77.243
	c-2.971-3.345-8.092-3.649-11.438-0.677c-3.346,2.971-3.649,8.092-0.677,11.438c16.29,18.342,25.26,41.953,25.26,66.483v1.525
	c0,16.928,6.547,33.354,18.433,46.248c6.437,6.988,9.247,16.307,7.706,25.568c-2.232,13.452-13.742,24.052-27.364,25.206
	c-1.196,0.1-2.382,0.129-3.558,0.095c4.798-11.313,6.848-23.804,5.636-36.372l-5.227-53.995l-1.049-10.953
	c-1.063-10.98-3.973-21.573-8.648-31.487c-0.015-0.033-0.031-0.066-0.046-0.098l-0.731-1.498c-1.422-2.912-4.443-4.702-7.68-4.538
	c-3.238,0.159-6.069,2.233-7.197,5.272c-4.984,13.427-17.961,22.448-32.291,22.448c-13.134,0-25.313-7.652-31.029-19.492
	c-1.351-2.8-4.187-4.58-7.296-4.58s-5.945,1.779-7.296,4.58c-5.716,11.841-17.895,19.492-31.029,19.492
	c-14.329,0-27.305-9.021-32.29-22.448c-1.365-3.676-5.17-5.845-9.029-5.15c-2.643,0.474-4.794,2.202-5.888,4.503
	c-5.103,10.327-8.258,21.428-9.378,33.009l-6.275,64.938c-1.211,12.567,0.839,25.056,5.637,36.368
	c-1.179,0.035-2.368,0.008-3.565-0.093c-13.625-1.154-25.135-11.755-27.368-25.208c-1.539-9.258,1.269-18.577,7.706-25.564
	c11.887-12.896,18.434-29.321,18.434-46.25v-1.525c0-55.26,45.002-100.23,100.367-100.246c20.669,0.006,40.519,6.247,57.404,18.047
	c3.667,2.561,8.718,1.667,11.282-2c2.564-3.668,1.668-8.719-2-11.282c-19.619-13.711-42.678-20.962-66.739-20.969
	c-64.249,0.018-116.518,52.259-116.518,116.45v1.525c0,12.848-5.023,25.372-14.146,35.269c-9.848,10.69-14.139,24.979-11.774,39.2
	c3.484,20.988,20.75,36.901,41.99,38.7c1.356,0.113,2.705,0.171,4.048,0.171c3.234,0,6.424-0.338,9.552-0.997
	c4.49,6.105,9.922,11.569,16.197,16.125l1.235,0.898c-23.396,11.039-39.132,34.866-39.132,61.708v89.559
	c0,4.475,3.628,8.102,8.102,8.102h200.971c4.475,0,8.102-3.628,8.102-8.102v-89.559c0-26.841-15.736-50.666-39.131-61.707
	l1.237-0.899c6.271-4.557,11.701-10.02,16.188-16.122c3.123,0.658,6.309,0.994,9.54,0.994c1.343,0,2.694-0.057,4.051-0.172
	c21.237-1.799,38.502-17.712,41.985-38.697C513.729,230.871,509.439,216.582,499.589,205.889z M316.624,380.495H421.18v62.656
	H316.624V380.495z M461.289,361.695v81.457h-23.906v-80.76c0-4.475-3.628-8.102-8.102-8.102c-4.475,0-8.102,3.628-8.102,8.102v1.899
	H316.624v-1.899c0-4.475-3.628-8.102-8.102-8.102s-8.102,3.628-8.102,8.102v80.76h-23.898v-81.457
	c0-23.694,16.072-44.308,38.671-50.27l19.2,13.949c10.32,7.498,22.412,11.247,34.509,11.247c12.094-0.001,24.194-3.75,34.517-11.246
	l19.2-13.949C445.217,317.389,461.289,338.002,461.289,361.695z M430.075,285.98l-36.178,26.282
	c-14.952,10.857-35.037,10.858-49.979,0.001l-36.181-26.284c-16.724-12.145-25.881-32.473-23.898-53.051l5.501-56.802l0.777-8.145
	c0.417-4.314,1.174-8.547,2.265-12.678c9.457,10.818,23.329,17.418,38.189,17.418c14.825,0,28.821-6.626,38.326-17.578
	c9.504,10.952,23.5,17.578,38.325,17.578c14.863,0,28.737-6.602,38.193-17.423c1.094,4.136,1.853,8.37,2.27,12.675l6.278,64.952
	C455.947,253.504,446.794,273.833,430.075,285.98z"/>
<g>
</g>
<g>
</g>
<g>
</g>
<g>
</g>
<g>
</g>
<g>
</g>
<g>
</g>
<g>
</g>
<g>
</g>
<g>
</g>
<g>
</g>
<g>
</g>
<g>
</g>
<g>
</g>
<g>
</g>
</svg>
